<svg width="200" height="200" viewBox="0 0 200 200" xmlns="http://www.w3.org/2000/svg">
  <defs>
    <radialGradient id="bgGrad" cx="50%" cy="45%" r="70%">
      <stop offset="0%" stop-color="#1a1014"/>
      <stop offset="100%" stop-color="#0d1117"/>
    </radialGradient>
    <filter id="crestGlow" x="-60%" y="-60%" width="220%" height="220%">
      <feGaussianBlur stdDeviation="2.2" result="blur"/>
      <feMerge>
        <feMergeNode in="blur"/>
        <feMergeNode in="SourceGraphic"/>
      </feMerge>
    </filter>
  </defs>

  <!-- outer disc -->
  <circle cx="100" cy="100" r="97" fill="url(#bgGrad)" stroke="#3a1014" stroke-width="2"/>
  <circle cx="100" cy="100" r="95" fill="none" stroke="#E60012" stroke-width="1" opacity="0.35"/>

  <!-- ring tick marks -->
  <g>
    <line x1="190.0" y1="100.0" x2="195.0" y2="100.0" stroke="#E60012" stroke-width="2" opacity="0.9"/>
    <line x1="188.6" y1="115.6" x2="193.6" y2="116.5" stroke="#E60012" stroke-width="1" opacity="0.45"/>
    <line x1="184.6" y1="130.8" x2="189.3" y2="132.5" stroke="#E60012" stroke-width="1" opacity="0.45"/>
    <line x1="177.9" y1="145.0" x2="182.3" y2="147.5" stroke="#E60012" stroke-width="1" opacity="0.45"/>
    <line x1="168.9" y1="157.9" x2="172.8" y2="161.1" stroke="#E60012" stroke-width="1" opacity="0.45"/>
    <line x1="157.9" y1="168.9" x2="161.1" y2="172.8" stroke="#E60012" stroke-width="1" opacity="0.45"/>
    <line x1="145.0" y1="177.9" x2="147.5" y2="182.3" stroke="#E60012" stroke-width="1" opacity="0.45"/>
    <line x1="130.8" y1="184.6" x2="132.5" y2="189.3" stroke="#E60012" stroke-width="1" opacity="0.45"/>
    <line x1="115.6" y1="188.6" x2="116.5" y2="193.6" stroke="#E60012" stroke-width="1" opacity="0.45"/>
    <line x1="100.0" y1="190.0" x2="100.0" y2="195.0" stroke="#E60012" stroke-width="2" opacity="0.9"/>
    <line x1="84.4" y1="188.6" x2="83.5" y2="193.6" stroke="#E60012" stroke-width="1" opacity="0.45"/>
    <line x1="69.2" y1="184.6" x2="67.5" y2="189.3" stroke="#E60012" stroke-width="1" opacity="0.45"/>
    <line x1="55.0" y1="177.9" x2="52.5" y2="182.3" stroke="#E60012" stroke-width="1" opacity="0.45"/>
    <line x1="42.1" y1="168.9" x2="38.9" y2="172.8" stroke="#E60012" stroke-width="1" opacity="0.45"/>
    <line x1="31.1" y1="157.9" x2="27.2" y2="161.1" stroke="#E60012" stroke-width="1" opacity="0.45"/>
    <line x1="22.1" y1="145.0" x2="17.7" y2="147.5" stroke="#E60012" stroke-width="1" opacity="0.45"/>
    <line x1="15.4" y1="130.8" x2="10.7" y2="132.5" stroke="#E60012" stroke-width="1" opacity="0.45"/>
    <line x1="11.4" y1="115.6" x2="6.4" y2="116.5" stroke="#E60012" stroke-width="1" opacity="0.45"/>
    <line x1="10.0" y1="100.0" x2="5.0" y2="100.0" stroke="#E60012" stroke-width="2" opacity="0.9"/>
    <line x1="11.4" y1="84.4" x2="6.4" y2="83.5" stroke="#E60012" stroke-width="1" opacity="0.45"/>
    <line x1="15.4" y1="69.2" x2="10.7" y2="67.5" stroke="#E60012" stroke-width="1" opacity="0.45"/>
    <line x1="22.1" y1="55.0" x2="17.7" y2="52.5" stroke="#E60012" stroke-width="1" opacity="0.45"/>
    <line x1="31.1" y1="42.1" x2="27.2" y2="38.9" stroke="#E60012" stroke-width="1" opacity="0.45"/>
    <line x1="42.1" y1="31.1" x2="38.9" y2="27.2" stroke="#E60012" stroke-width="1" opacity="0.45"/>
    <line x1="55.0" y1="22.1" x2="52.5" y2="17.7" stroke="#E60012" stroke-width="1" opacity="0.45"/>
    <line x1="69.2" y1="15.4" x2="67.5" y2="10.7" stroke="#E60012" stroke-width="1" opacity="0.45"/>
    <line x1="84.4" y1="11.4" x2="83.5" y2="6.4" stroke="#E60012" stroke-width="1" opacity="0.45"/>
    <line x1="100.0" y1="10.0" x2="100.0" y2="5.0" stroke="#E60012" stroke-width="2" opacity="0.9"/>
    <line x1="115.6" y1="11.4" x2="116.5" y2="6.4" stroke="#E60012" stroke-width="1" opacity="0.45"/>
    <line x1="130.8" y1="15.4" x2="132.5" y2="10.7" stroke="#E60012" stroke-width="1" opacity="0.45"/>
    <line x1="145.0" y1="22.1" x2="147.5" y2="17.7" stroke="#E60012" stroke-width="1" opacity="0.45"/>
    <line x1="157.9" y1="31.1" x2="161.1" y2="27.2" stroke="#E60012" stroke-width="1" opacity="0.45"/>
    <line x1="168.9" y1="42.1" x2="172.8" y2="38.9" stroke="#E60012" stroke-width="1" opacity="0.45"/>
    <line x1="177.9" y1="55.0" x2="182.3" y2="52.5" stroke="#E60012" stroke-width="1" opacity="0.45"/>
    <line x1="184.6" y1="69.2" x2="189.3" y2="67.5" stroke="#E60012" stroke-width="1" opacity="0.45"/>
    <line x1="188.6" y1="84.4" x2="193.6" y2="83.5" stroke="#E60012" stroke-width="1" opacity="0.45"/>
  </g>

  <!-- hexagonal frame -->
  <polygon points="100.0,38.0 153.7,69.0 153.7,131.0 100.0,162.0 46.3,131.0 46.3,69.0"
    fill="none" stroke="#E60012" stroke-width="1.5" opacity="0.55"/>

  <!-- side directional markers -->
  <polygon points="8,95 24,100 8,105" fill="#E60012"/>
  <polygon points="192,95 176,100 192,105" fill="#E60012"/>

  <!-- outer plate corner rivets -->
  <circle cx="100" cy="18" r="2" fill="#E60012" opacity="0.7"/>
  <circle cx="100" cy="182" r="2" fill="#E60012" opacity="0.7"/>

  <!-- central three-blade insignia (original design, faction-crest style) -->
  <g filter="url(#crestGlow)">
    <path d="M 100.0,92.0 L 110.0,82.0 L 134.0,70.0 L 144.0,88.0 L 126.0,96.0 L 130.0,110.0 L 110.0,106.0 L 100.0,100.0 Z" fill="#E60012"/>
    <path d="M 106.9,104.0 L 110.6,117.7 L 109.0,144.4 L 88.4,144.1 L 90.5,124.5 L 76.3,121.0 L 89.8,105.7 L 100.0,100.0 Z" fill="#E60012"/>
    <path d="M 93.1,104.0 L 79.4,100.3 L 57.0,85.6 L 67.6,67.9 L 83.5,79.5 L 93.7,69.0 L 100.2,88.3 L 100.0,100.0 Z" fill="#E60012"/>
  </g>

  <!-- center hub -->
  <circle cx="100" cy="100" r="15" fill="#0d1117" stroke="#FFD700" stroke-width="1.5"/>
  <circle cx="100" cy="100" r="6" fill="#E60012"/>
</svg>
